<svg xmlns="http://www.w3.org/2000/svg" xmlns:xlink="http://www.w3.org/1999/xlink" width="250" zoomAndPan="magnify" viewBox="0 0 187.5 37.5" height="50" preserveAspectRatio="xMidYMid meet" version="1.0"><defs><filter x="0%" y="0%" width="100%" height="100%" id="573b7e06a4"><feColorMatrix values="0 0 0 0 1 0 0 0 0 1 0 0 0 0 1 0 0 0 1 0" color-interpolation-filters="sRGB"/></filter><g/><mask id="45a0eafc3d"><g filter="url(#573b7e06a4)"><rect x="-18.75" width="225" fill="#000000" y="-3.75" height="45" fill-opacity="0.69"/></g></mask><clipPath id="32379e6b06"><path d="M 2 0.695312 L 34.261719 0.695312 L 34.261719 29.320312 L 2 29.320312 Z M 2 0.695312 " clip-rule="nonzero"/></clipPath><clipPath id="1ebdcffe38"><path d="M 16.710938 28.46875 L 2.273438 3.203125 C 1.976562 2.6875 1.976562 2.046875 2.277344 1.53125 C 2.578125 1.015625 3.128906 0.695312 3.726562 0.695312 L 32.558594 0.695312 C 33.15625 0.695312 33.707031 1.015625 34.007812 1.53125 C 34.304688 2.046875 34.308594 2.6875 34.011719 3.203125 L 19.574219 28.46875 C 19.28125 28.984375 18.734375 29.300781 18.140625 29.300781 C 17.550781 29.300781 17.003906 28.984375 16.710938 28.46875 Z M 16.710938 28.46875 " clip-rule="nonzero"/></clipPath><clipPath id="a6e1dfe335"><path d="M 0 0.695312 L 32.261719 0.695312 L 32.261719 29.320312 L 0 29.320312 Z M 0 0.695312 " clip-rule="nonzero"/></clipPath><clipPath id="4e77876d3b"><path d="M 14.710938 28.46875 L 0.273438 3.203125 C -0.0234375 2.6875 -0.0234375 2.046875 0.277344 1.53125 C 0.578125 1.015625 1.128906 0.695312 1.726562 0.695312 L 30.558594 0.695312 C 31.15625 0.695312 31.707031 1.015625 32.007812 1.53125 C 32.304688 2.046875 32.308594 2.6875 32.011719 3.203125 L 17.574219 28.46875 C 17.28125 28.984375 16.734375 29.300781 16.140625 29.300781 C 15.550781 29.300781 15.003906 28.984375 14.710938 28.46875 Z M 14.710938 28.46875 " clip-rule="nonzero"/></clipPath><clipPath id="7e6f1a6214"><rect x="0" width="33" y="0" height="30"/></clipPath><clipPath id="90b5580f3e"><rect x="0" width="36" y="0" height="32"/></clipPath><mask id="9fd38e8dfd"><g filter="url(#573b7e06a4)"><rect x="-18.75" width="225" fill="#000000" y="-3.75" height="45" fill-opacity="0.69"/></g></mask><clipPath id="f5366da910"><path d="M 2.121094 0.695312 L 34.410156 0.695312 L 34.410156 29.320312 L 2.121094 29.320312 Z M 2.121094 0.695312 " clip-rule="nonzero"/></clipPath><clipPath id="b55d39862d"><path d="M 16.859375 28.46875 L 2.421875 3.203125 C 2.125 2.6875 2.128906 2.046875 2.425781 1.53125 C 2.726562 1.015625 3.28125 0.695312 3.878906 0.695312 L 32.707031 0.695312 C 33.304688 0.695312 33.855469 1.015625 34.15625 1.53125 C 34.457031 2.046875 34.457031 2.6875 34.160156 3.203125 L 19.726562 28.46875 C 19.429688 28.984375 18.882812 29.300781 18.292969 29.300781 C 17.699219 29.300781 17.152344 28.984375 16.859375 28.46875 Z M 16.859375 28.46875 " clip-rule="nonzero"/></clipPath><clipPath id="40b421f5d9"><path d="M 0.121094 0.695312 L 32.410156 0.695312 L 32.410156 29.320312 L 0.121094 29.320312 Z M 0.121094 0.695312 " clip-rule="nonzero"/></clipPath><clipPath id="795f320d37"><path d="M 14.859375 28.46875 L 0.421875 3.203125 C 0.125 2.6875 0.128906 2.046875 0.425781 1.53125 C 0.726562 1.015625 1.28125 0.695312 1.878906 0.695312 L 30.707031 0.695312 C 31.304688 0.695312 31.855469 1.015625 32.15625 1.53125 C 32.457031 2.046875 32.457031 2.6875 32.160156 3.203125 L 17.726562 28.46875 C 17.429688 28.984375 16.882812 29.300781 16.292969 29.300781 C 15.699219 29.300781 15.152344 28.984375 14.859375 28.46875 Z M 14.859375 28.46875 " clip-rule="nonzero"/></clipPath><clipPath id="250e078331"><rect x="0" width="33" y="0" height="30"/></clipPath><clipPath id="86a8e7b641"><rect x="0" width="36" y="0" height="32"/></clipPath><mask id="bf64319993"><g filter="url(#573b7e06a4)"><rect x="-18.75" width="225" fill="#000000" y="-3.75" height="45" fill-opacity="0.69"/></g></mask><clipPath id="0e741d993a"><path d="M 1.761719 0.695312 L 34.050781 0.695312 L 34.050781 29.320312 L 1.761719 29.320312 Z M 1.761719 0.695312 " clip-rule="nonzero"/></clipPath><clipPath id="8d051b805d"><path d="M 16.496094 28.46875 L 2.0625 3.203125 C 1.765625 2.6875 1.765625 2.046875 2.066406 1.53125 C 2.367188 1.015625 2.917969 0.695312 3.515625 0.695312 L 32.34375 0.695312 C 32.941406 0.695312 33.496094 1.015625 33.796875 1.53125 C 34.09375 2.046875 34.097656 2.6875 33.800781 3.203125 L 19.363281 28.46875 C 19.070312 28.984375 18.523438 29.300781 17.929688 29.300781 C 17.339844 29.300781 16.792969 28.984375 16.496094 28.46875 Z M 16.496094 28.46875 " clip-rule="nonzero"/></clipPath><clipPath id="b414f0fc49"><path d="M 0.761719 0.695312 L 33.050781 0.695312 L 33.050781 29.320312 L 0.761719 29.320312 Z M 0.761719 0.695312 " clip-rule="nonzero"/></clipPath><clipPath id="4a03f1fd46"><path d="M 15.496094 28.46875 L 1.0625 3.203125 C 0.765625 2.6875 0.765625 2.046875 1.066406 1.53125 C 1.367188 1.015625 1.917969 0.695312 2.515625 0.695312 L 31.34375 0.695312 C 31.941406 0.695312 32.496094 1.015625 32.796875 1.53125 C 33.09375 2.046875 33.097656 2.6875 32.800781 3.203125 L 18.363281 28.46875 C 18.070312 28.984375 17.523438 29.300781 16.929688 29.300781 C 16.339844 29.300781 15.792969 28.984375 15.496094 28.46875 Z M 15.496094 28.46875 " clip-rule="nonzero"/></clipPath><clipPath id="09e2772c65"><rect x="0" width="34" y="0" height="30"/></clipPath><clipPath id="13f2f5e4c2"><rect x="0" width="36" y="0" height="32"/></clipPath><clipPath id="35a829866d"><path d="M 0.144531 6 L 25 6 L 25 25 L 0.144531 25 Z M 0.144531 6 " clip-rule="nonzero"/></clipPath><clipPath id="4d52fe40b7"><rect x="0" width="109" y="0" height="31"/></clipPath></defs><g mask="url(#45a0eafc3d)"><g transform="matrix(1, 0, 0, 1, 31, 3)"><g clip-path="url(#90b5580f3e)"><g clip-path="url(#32379e6b06)"><g clip-path="url(#1ebdcffe38)"><g transform="matrix(1, 0, 0, 1, 2, -0.000000000000001776)"><g clip-path="url(#7e6f1a6214)"><g clip-path="url(#a6e1dfe335)"><g clip-path="url(#4e77876d3b)"><path fill="#3dd9eb" d="M 33.445312 30.976562 L -1.210938 30.976562 L -1.210938 0.695312 L 33.445312 0.695312 Z M 33.445312 30.976562 " fill-opacity="1" fill-rule="nonzero"/></g></g></g></g></g></g></g></g></g><g mask="url(#9fd38e8dfd)"><g transform="matrix(1, 0, 0, 1, 20, 3)"><g clip-path="url(#86a8e7b641)"><g clip-path="url(#f5366da910)"><g clip-path="url(#b55d39862d)"><g transform="matrix(1, 0, 0, 1, 2, -0.000000000000001776)"><g clip-path="url(#250e078331)"><g clip-path="url(#40b421f5d9)"><g clip-path="url(#795f320d37)"><path fill="#615dff" d="M 33.59375 30.976562 L -1.0625 30.976562 L -1.0625 0.695312 L 33.59375 0.695312 Z M 33.59375 30.976562 " fill-opacity="1" fill-rule="nonzero"/></g></g></g></g></g></g></g></g></g><g mask="url(#bf64319993)"><g transform="matrix(1, 0, 0, 1, 8, 3)"><g clip-path="url(#13f2f5e4c2)"><g clip-path="url(#0e741d993a)"><g clip-path="url(#8d051b805d)"><g transform="matrix(1, 0, 0, 1, 1, -0.000000000000001776)"><g clip-path="url(#09e2772c65)"><g clip-path="url(#b414f0fc49)"><g clip-path="url(#4a03f1fd46)"><path fill="#00bf63" d="M 34.234375 30.976562 L -0.421875 30.976562 L -0.421875 0.695312 L 34.234375 0.695312 Z M 34.234375 30.976562 " fill-opacity="1" fill-rule="nonzero"/></g></g></g></g></g></g></g></g></g><g transform="matrix(1, 0, 0, 1, 70, 3)"><g clip-path="url(#4d52fe40b7)"><g clip-path="url(#35a829866d)"><g fill="#ffffff" fill-opacity="1"><g transform="translate(0.248707, 24.459008)"><g><path d="M 22.1875 -17.625 C 23.257812 -17.238281 23.796875 -16.722656 23.796875 -16.078125 C 23.796875 -15.867188 23.703125 -15.476562 23.515625 -14.90625 L 18.859375 -1.46875 C 18.828125 -1.363281 18.769531 -1.226562 18.6875 -1.0625 C 18.613281 -0.90625 18.398438 -0.691406 18.046875 -0.421875 C 17.703125 -0.160156 17.289062 -0.03125 16.8125 -0.03125 C 16.34375 -0.03125 15.929688 -0.160156 15.578125 -0.421875 C 15.234375 -0.691406 15.007812 -0.953125 14.90625 -1.203125 L 12.0625 -9.546875 C 10.28125 -4.265625 9.367188 -1.570312 9.328125 -1.46875 C 9.296875 -1.375 9.222656 -1.238281 9.109375 -1.0625 C 9.003906 -0.882812 8.878906 -0.722656 8.734375 -0.578125 C 8.359375 -0.210938 7.910156 -0.03125 7.390625 -0.03125 C 6.878906 -0.03125 6.457031 -0.148438 6.125 -0.390625 C 5.800781 -0.628906 5.582031 -0.867188 5.46875 -1.109375 L 5.296875 -1.46875 L 0.625 -14.90625 C 0.445312 -15.4375 0.359375 -15.828125 0.359375 -16.078125 C 0.359375 -16.722656 0.898438 -17.234375 1.984375 -17.609375 C 2.453125 -17.765625 2.875 -17.84375 3.25 -17.84375 C 3.632812 -17.84375 3.925781 -17.710938 4.125 -17.453125 C 4.320312 -17.203125 4.503906 -16.8125 4.671875 -16.28125 L 7.328125 -8.203125 L 9.96875 -16.15625 C 10.1875 -16.832031 10.597656 -17.300781 11.203125 -17.5625 C 11.453125 -17.675781 11.78125 -17.734375 12.1875 -17.734375 C 12.601562 -17.734375 12.988281 -17.597656 13.34375 -17.328125 C 13.707031 -17.066406 13.9375 -16.804688 14.03125 -16.546875 L 16.8125 -8.15625 L 19.46875 -16.28125 C 19.601562 -16.644531 19.707031 -16.914062 19.78125 -17.09375 C 19.863281 -17.269531 20.015625 -17.441406 20.234375 -17.609375 C 20.453125 -17.785156 20.722656 -17.875 21.046875 -17.875 C 21.367188 -17.875 21.75 -17.789062 22.1875 -17.625 Z M 22.1875 -17.625 "/></g></g></g></g><g fill="#ffffff" fill-opacity="1"><g transform="translate(24.413767, 24.459008)"><g><path d="M 12.046875 -4.640625 L 12.484375 -4.953125 C 13.023438 -5.273438 13.410156 -5.4375 13.640625 -5.4375 C 14.140625 -5.4375 14.679688 -4.988281 15.265625 -4.09375 C 15.617188 -3.519531 15.796875 -3.0625 15.796875 -2.71875 C 15.796875 -2.382812 15.6875 -2.101562 15.46875 -1.875 C 15.25 -1.65625 14.992188 -1.457031 14.703125 -1.28125 C 14.410156 -1.101562 14.128906 -0.929688 13.859375 -0.765625 C 13.597656 -0.609375 13.054688 -0.398438 12.234375 -0.140625 C 11.410156 0.109375 10.613281 0.234375 9.84375 0.234375 C 9.082031 0.234375 8.3125 0.132812 7.53125 -0.0625 C 6.75 -0.257812 5.941406 -0.597656 5.109375 -1.078125 C 4.285156 -1.554688 3.539062 -2.132812 2.875 -2.8125 C 2.21875 -3.5 1.675781 -4.378906 1.25 -5.453125 C 0.820312 -6.523438 0.609375 -7.691406 0.609375 -8.953125 C 0.609375 -10.210938 0.816406 -11.351562 1.234375 -12.375 C 1.648438 -13.394531 2.1875 -14.238281 2.84375 -14.90625 C 3.5 -15.582031 4.242188 -16.144531 5.078125 -16.59375 C 6.660156 -17.46875 8.25 -17.90625 9.84375 -17.90625 C 10.601562 -17.90625 11.375 -17.785156 12.15625 -17.546875 C 12.9375 -17.316406 13.53125 -17.078125 13.9375 -16.828125 L 14.515625 -16.5 C 14.804688 -16.320312 15.03125 -16.175781 15.1875 -16.0625 C 15.601562 -15.71875 15.8125 -15.332031 15.8125 -14.90625 C 15.8125 -14.476562 15.644531 -14.03125 15.3125 -13.5625 C 14.6875 -12.695312 14.125 -12.265625 13.625 -12.265625 C 13.332031 -12.265625 12.921875 -12.441406 12.390625 -12.796875 C 11.710938 -13.347656 10.804688 -13.625 9.671875 -13.625 C 8.628906 -13.625 7.597656 -13.257812 6.578125 -12.53125 C 6.097656 -12.175781 5.695312 -11.675781 5.375 -11.03125 C 5.050781 -10.382812 4.890625 -9.65625 4.890625 -8.84375 C 4.890625 -8.03125 5.050781 -7.300781 5.375 -6.65625 C 5.695312 -6.007812 6.109375 -5.5 6.609375 -5.125 C 7.585938 -4.414062 8.609375 -4.0625 9.671875 -4.0625 C 10.171875 -4.0625 10.640625 -4.125 11.078125 -4.25 C 11.523438 -4.382812 11.847656 -4.515625 12.046875 -4.640625 Z M 12.046875 -4.640625 "/></g></g></g><g fill="#ffffff" fill-opacity="1"><g transform="translate(40.838266, 24.459008)"><g><path d="M 5.25 -3.578125 L 11.828125 -3.578125 C 12.359375 -3.578125 12.742188 -3.515625 12.984375 -3.390625 C 13.222656 -3.273438 13.382812 -3.085938 13.46875 -2.828125 C 13.550781 -2.566406 13.59375 -2.222656 13.59375 -1.796875 C 13.59375 -1.367188 13.550781 -1.023438 13.46875 -0.765625 C 13.382812 -0.515625 13.25 -0.335938 13.0625 -0.234375 C 12.757812 -0.078125 12.335938 0 11.796875 0 L 3.09375 0 C 1.96875 0 1.304688 -0.304688 1.109375 -0.921875 C 1.015625 -1.179688 0.96875 -1.59375 0.96875 -2.15625 L 0.96875 -15.59375 C 0.96875 -15.96875 0.976562 -16.25 1 -16.4375 C 1.03125 -16.625 1.109375 -16.835938 1.234375 -17.078125 C 1.460938 -17.515625 2.09375 -17.734375 3.125 -17.734375 C 4.25 -17.734375 4.914062 -17.429688 5.125 -16.828125 C 5.207031 -16.554688 5.25 -16.140625 5.25 -15.578125 Z M 5.25 -3.578125 "/></g></g></g><g fill="#ffffff" fill-opacity="1"><g transform="translate(55.037357, 24.459008)"><g><path d="M 9.28125 -17.953125 C 11.675781 -17.953125 13.75 -17.085938 15.5 -15.359375 C 17.257812 -13.628906 18.140625 -11.488281 18.140625 -8.9375 C 18.140625 -6.382812 17.300781 -4.207031 15.625 -2.40625 C 13.945312 -0.601562 11.878906 0.296875 9.421875 0.296875 C 6.972656 0.296875 4.890625 -0.585938 3.171875 -2.359375 C 1.460938 -4.140625 0.609375 -6.253906 0.609375 -8.703125 C 0.609375 -10.046875 0.847656 -11.300781 1.328125 -12.46875 C 1.816406 -13.632812 2.460938 -14.613281 3.265625 -15.40625 C 4.066406 -16.195312 4.992188 -16.816406 6.046875 -17.265625 C 7.097656 -17.722656 8.175781 -17.953125 9.28125 -17.953125 Z M 4.890625 -8.828125 C 4.890625 -7.390625 5.351562 -6.222656 6.28125 -5.328125 C 7.207031 -4.429688 8.242188 -3.984375 9.390625 -3.984375 C 10.535156 -3.984375 11.566406 -4.421875 12.484375 -5.296875 C 13.398438 -6.171875 13.859375 -7.335938 13.859375 -8.796875 C 13.859375 -10.265625 13.394531 -11.441406 12.46875 -12.328125 C 11.539062 -13.222656 10.503906 -13.671875 9.359375 -13.671875 C 8.210938 -13.671875 7.179688 -13.222656 6.265625 -12.328125 C 5.347656 -11.429688 4.890625 -10.265625 4.890625 -8.828125 Z M 4.890625 -8.828125 "/></g></g></g><g fill="#ffffff" fill-opacity="1"><g transform="translate(73.784025, 24.459008)"><g><path d="M 12.546875 -17.078125 C 12.710938 -17.335938 12.945312 -17.515625 13.25 -17.609375 C 13.5625 -17.703125 13.945312 -17.75 14.40625 -17.75 C 14.863281 -17.75 15.226562 -17.707031 15.5 -17.625 C 15.78125 -17.550781 15.988281 -17.457031 16.125 -17.34375 C 16.269531 -17.226562 16.378906 -17.054688 16.453125 -16.828125 C 16.546875 -16.554688 16.59375 -16.140625 16.59375 -15.578125 L 16.59375 -8.265625 C 16.59375 -6.140625 15.929688 -4.207031 14.609375 -2.46875 C 13.960938 -1.644531 13.128906 -0.976562 12.109375 -0.46875 C 11.097656 0.0390625 9.972656 0.296875 8.734375 0.296875 C 7.503906 0.296875 6.382812 0.0390625 5.375 -0.46875 C 4.375 -0.988281 3.554688 -1.671875 2.921875 -2.515625 C 1.617188 -4.222656 0.96875 -6.160156 0.96875 -8.328125 L 0.96875 -15.59375 C 0.96875 -15.988281 0.976562 -16.273438 1 -16.453125 C 1.03125 -16.640625 1.109375 -16.851562 1.234375 -17.09375 C 1.359375 -17.34375 1.570312 -17.515625 1.875 -17.609375 C 2.1875 -17.703125 2.597656 -17.75 3.109375 -17.75 C 3.628906 -17.75 4.039062 -17.703125 4.34375 -17.609375 C 4.65625 -17.515625 4.867188 -17.34375 4.984375 -17.09375 C 5.171875 -16.726562 5.265625 -16.222656 5.265625 -15.578125 L 5.265625 -8.328125 C 5.265625 -7.335938 5.507812 -6.398438 6 -5.515625 C 6.238281 -5.066406 6.597656 -4.703125 7.078125 -4.421875 C 7.566406 -4.148438 8.140625 -4.015625 8.796875 -4.015625 C 9.972656 -4.015625 10.851562 -4.445312 11.4375 -5.3125 C 12.019531 -6.1875 12.3125 -7.195312 12.3125 -8.34375 L 12.3125 -15.75 C 12.3125 -16.375 12.390625 -16.816406 12.546875 -17.078125 Z M 12.546875 -17.078125 "/></g></g></g><g fill="#ffffff" fill-opacity="1"><g transform="translate(91.345423, 24.459008)"><g><path d="M 3.125 -17.75 L 7.59375 -17.734375 C 9.9375 -17.734375 11.992188 -16.890625 13.765625 -15.203125 C 15.535156 -13.515625 16.421875 -11.441406 16.421875 -8.984375 C 16.421875 -6.523438 15.550781 -4.414062 13.8125 -2.65625 C 12.082031 -0.90625 9.984375 -0.03125 7.515625 -0.03125 L 3.09375 -0.03125 C 2.113281 -0.03125 1.5 -0.226562 1.25 -0.625 C 1.0625 -0.96875 0.96875 -1.484375 0.96875 -2.171875 L 0.96875 -15.625 C 0.96875 -16.007812 0.976562 -16.289062 1 -16.46875 C 1.03125 -16.644531 1.109375 -16.851562 1.234375 -17.09375 C 1.460938 -17.53125 2.09375 -17.75 3.125 -17.75 Z M 7.59375 -4.3125 C 8.757812 -4.3125 9.804688 -4.738281 10.734375 -5.59375 C 11.671875 -6.457031 12.140625 -7.539062 12.140625 -8.84375 C 12.140625 -10.15625 11.679688 -11.25 10.765625 -12.125 C 9.859375 -13.007812 8.796875 -13.453125 7.578125 -13.453125 L 5.25 -13.453125 L 5.25 -4.3125 Z M 7.59375 -4.3125 "/></g></g></g></g></g></svg>