<svg width="330" height="200" viewBox="0 0 330 200" xmlns="http://www.w3.org/2000/svg" role="img" aria-label="Server themed breadcrumb art">
  <defs>
    <linearGradient id="grad" x1="0%" y1="0%" x2="100%" y2="100%">
      <stop offset="0%" stop-color="#4F8DF9" stop-opacity="0.25"/>
      <stop offset="100%" stop-color="#4F8DF9" stop-opacity="0.05"/>
    </linearGradient>
    <pattern id="grid" patternUnits="userSpaceOnUse" width="12" height="12">
      <path d="M 12 0 L 0 0 0 12" fill="none" stroke="#4F8DF9" stroke-opacity="0.08" stroke-width="1"/>
    </pattern>
    <filter id="blur" x="-10%" y="-10%" width="120%" height="120%">
      <feGaussianBlur in="SourceGraphic" stdDeviation="6" />
    </filter>
  </defs>

  <!-- Soft blob background (keeps similar texture/feel) -->
  <g filter="url(#blur)">
    <path d="M295,35 C320,60 320,110 300,135 C275,170 220,185 175,180 C120,175 70,165 45,130 C25,100 35,65 65,45 C95,25 150,20 200,25 C245,30 270,10 295,35 Z" fill="url(#grad)"/>
  </g>

  <!-- Subtle grid texture overlay -->
  <rect x="0" y="0" width="330" height="200" fill="url(#grid)"/>

  <!-- Server rack illustration -->
  <g transform="translate(145,48)">
    <rect x="-55" y="-6" rx="10" ry="10" width="150" height="110" fill="#ffffff" fill-opacity="0.15" stroke="#4F8DF9" stroke-opacity="0.25"/>

    <!-- Unit 1 -->
    <rect x="-45" y="4" rx="6" ry="6" width="130" height="20" fill="#1E2A44" opacity="0.85"/>
    <circle cx="-35" cy="14" r="3" fill="#4F8DF9"/>
    <rect x="-25" y="10" width="80" height="8" rx="4" fill="#5FA1FF" opacity="0.8"/>

    <!-- Unit 2 -->
    <rect x="-45" y="32" rx="6" ry="6" width="130" height="20" fill="#1E2A44" opacity="0.85"/>
    <circle cx="-35" cy="42" r="3" fill="#55D187"/>
    <rect x="-25" y="38" width="95" height="8" rx="4" fill="#77E2A1" opacity="0.8"/>

    <!-- Unit 3 -->
    <rect x="-45" y="60" rx="6" ry="6" width="130" height="20" fill="#1E2A44" opacity="0.85"/>
    <circle cx="-35" cy="70" r="3" fill="#FFC65B"/>
    <rect x="-25" y="66" width="60" height="8" rx="4" fill="#FFD48A" opacity="0.8"/>
  </g>
</svg>
