<svg xmlns="http://www.w3.org/2000/svg" xmlns:xlink="http://www.w3.org/1999/xlink" width="50" zoomAndPan="magnify" viewBox="0 0 37.5 37.499999" height="50" preserveAspectRatio="xMidYMid meet" version="1.0"><defs><filter x="0%" y="0%" width="100%" height="100%" id="9baa8838e7"><feColorMatrix values="0 0 0 0 1 0 0 0 0 1 0 0 0 0 1 0 0 0 1 0" color-interpolation-filters="sRGB"/></filter><clipPath id="2cec4e2ac2"><path d="M 14 10 L 37.007812 10 L 37.007812 31 L 14 31 Z M 14 10 " clip-rule="nonzero"/></clipPath><mask id="6fecf54e27"><g filter="url(#9baa8838e7)"><rect x="-3.75" width="45" fill="#000000" y="-3.75" height="44.999999" fill-opacity="0.69"/></g></mask><clipPath id="d6b0bc4114"><path d="M 3.015625 1.089844 L 20.882812 1.089844 L 20.882812 17.519531 L 3.015625 17.519531 Z M 3.015625 1.089844 " clip-rule="nonzero"/></clipPath><clipPath id="8900311eaf"><path d="M 9.359375 15.972656 L 3.421875 5.589844 C 2.890625 4.660156 2.894531 3.515625 3.433594 2.589844 C 3.972656 1.660156 4.960938 1.089844 6.035156 1.089844 L 17.820312 1.089844 C 18.894531 1.089844 19.882812 1.660156 20.421875 2.589844 C 20.960938 3.515625 20.964844 4.660156 20.433594 5.589844 L 14.5 15.972656 C 13.972656 16.898438 12.992188 17.464844 11.929688 17.464844 C 10.867188 17.464844 9.882812 16.898438 9.359375 15.972656 Z M 9.359375 15.972656 " clip-rule="nonzero"/></clipPath><clipPath id="1e6a78626a"><path d="M 0.015625 0.0898438 L 17.882812 0.0898438 L 17.882812 16.472656 L 0.015625 16.472656 Z M 0.015625 0.0898438 " clip-rule="nonzero"/></clipPath><clipPath id="68be0d47b7"><path d="M 6.359375 14.972656 L 0.421875 4.589844 C -0.109375 3.660156 -0.105469 2.515625 0.433594 1.589844 C 0.972656 0.660156 1.960938 0.0898438 3.035156 0.0898438 L 14.820312 0.0898438 C 15.894531 0.0898438 16.882812 0.660156 17.421875 1.589844 C 17.960938 2.515625 17.964844 3.660156 17.433594 4.589844 L 11.5 14.972656 C 10.972656 15.898438 9.992188 16.464844 8.929688 16.464844 C 7.867188 16.464844 6.882812 15.898438 6.359375 14.972656 Z M 6.359375 14.972656 " clip-rule="nonzero"/></clipPath><clipPath id="a76f9a1e15"><rect x="0" width="18" y="0" height="17"/></clipPath><clipPath id="dd1e5c5f38"><rect x="0" width="24" y="0" height="21"/></clipPath><mask id="21636d536e"><g filter="url(#9baa8838e7)"><rect x="-3.75" width="45" fill="#000000" y="-3.75" height="44.999999" fill-opacity="0.69"/></g></mask><clipPath id="c59b788955"><path d="M 3.070312 1.089844 L 20.9375 1.089844 L 20.9375 17.519531 L 3.070312 17.519531 Z M 3.070312 1.089844 " clip-rule="nonzero"/></clipPath><clipPath id="e29d47be9c"><path d="M 9.414062 15.972656 L 3.480469 5.589844 C 2.945312 4.660156 2.949219 3.515625 3.488281 2.589844 C 4.027344 1.660156 5.015625 1.089844 6.089844 1.089844 L 17.878906 1.089844 C 18.949219 1.089844 19.941406 1.660156 20.476562 2.589844 C 21.015625 3.515625 21.019531 4.660156 20.488281 5.589844 L 14.554688 15.972656 C 14.027344 16.898438 13.046875 17.464844 11.984375 17.464844 C 10.921875 17.464844 9.941406 16.898438 9.414062 15.972656 Z M 9.414062 15.972656 " clip-rule="nonzero"/></clipPath><clipPath id="d632be7264"><path d="M 0.0703125 0.0898438 L 17.9375 0.0898438 L 17.9375 16.472656 L 0.0703125 16.472656 Z M 0.0703125 0.0898438 " clip-rule="nonzero"/></clipPath><clipPath id="0dcf7d718e"><path d="M 6.414062 14.972656 L 0.480469 4.589844 C -0.0546875 3.660156 -0.0507812 2.515625 0.488281 1.589844 C 1.027344 0.660156 2.015625 0.0898438 3.089844 0.0898438 L 14.878906 0.0898438 C 15.949219 0.0898438 16.941406 0.660156 17.476562 1.589844 C 18.015625 2.515625 18.019531 3.660156 17.488281 4.589844 L 11.554688 14.972656 C 11.027344 15.898438 10.046875 16.464844 8.984375 16.464844 C 7.921875 16.464844 6.941406 15.898438 6.414062 14.972656 Z M 6.414062 14.972656 " clip-rule="nonzero"/></clipPath><clipPath id="1e66facf27"><rect x="0" width="18" y="0" height="17"/></clipPath><clipPath id="1b0fcf994e"><rect x="0" width="24" y="0" height="21"/></clipPath><mask id="08e7f063c6"><g filter="url(#9baa8838e7)"><rect x="-3.75" width="45" fill="#000000" y="-3.75" height="44.999999" fill-opacity="0.69"/></g></mask><clipPath id="a7eadfa0e4"><path d="M 2.160156 1.089844 L 20 1.089844 L 20 17.519531 L 2.160156 17.519531 Z M 2.160156 1.089844 " clip-rule="nonzero"/></clipPath><clipPath id="37207095ca"><path d="M 8.5 15.972656 L 2.566406 5.589844 C 2.035156 4.660156 2.039062 3.515625 2.578125 2.589844 C 3.113281 1.660156 4.105469 1.089844 5.175781 1.089844 L 16.964844 1.089844 C 18.035156 1.089844 19.027344 1.660156 19.566406 2.589844 C 20.105469 3.515625 20.105469 4.660156 19.574219 5.589844 L 13.640625 15.972656 C 13.113281 16.898438 12.132812 17.464844 11.070312 17.464844 C 10.007812 17.464844 9.027344 16.898438 8.5 15.972656 Z M 8.5 15.972656 " clip-rule="nonzero"/></clipPath><clipPath id="a15bfa7a2a"><path d="M 0.160156 0.0898438 L 18 0.0898438 L 18 16.472656 L 0.160156 16.472656 Z M 0.160156 0.0898438 " clip-rule="nonzero"/></clipPath><clipPath id="d00bc26519"><path d="M 6.5 14.972656 L 0.566406 4.589844 C 0.0351562 3.660156 0.0390625 2.515625 0.578125 1.589844 C 1.113281 0.660156 2.105469 0.0898438 3.175781 0.0898438 L 14.964844 0.0898438 C 16.035156 0.0898438 17.027344 0.660156 17.566406 1.589844 C 18.105469 2.515625 18.105469 3.660156 17.574219 4.589844 L 11.640625 14.972656 C 11.113281 15.898438 10.132812 16.464844 9.070312 16.464844 C 8.007812 16.464844 7.027344 15.898438 6.5 14.972656 Z M 6.5 14.972656 " clip-rule="nonzero"/></clipPath><clipPath id="077bcbe649"><rect x="0" width="18" y="0" height="17"/></clipPath><clipPath id="173840fcb1"><rect x="0" width="23" y="0" height="21"/></clipPath></defs><g clip-path="url(#2cec4e2ac2)"><g mask="url(#6fecf54e27)"><g transform="matrix(1, 0, 0, 1, 14, 10)"><g clip-path="url(#dd1e5c5f38)"><g clip-path="url(#d6b0bc4114)"><g clip-path="url(#8900311eaf)"><g transform="matrix(1, 0, 0, 1, 3, 1)"><g clip-path="url(#a76f9a1e15)"><g clip-path="url(#1e6a78626a)"><g clip-path="url(#68be0d47b7)"><path fill="#3dd9eb" d="M 20.003906 19.472656 L -2.179688 19.472656 L -2.179688 0.0898438 L 20.003906 0.0898438 Z M 20.003906 19.472656 " fill-opacity="1" fill-rule="nonzero"/></g></g></g></g></g></g></g></g></g></g><g mask="url(#21636d536e)"><g transform="matrix(1, 0, 0, 1, 7, 10)"><g clip-path="url(#1b0fcf994e)"><g clip-path="url(#c59b788955)"><g clip-path="url(#e29d47be9c)"><g transform="matrix(1, 0, 0, 1, 3, 1)"><g clip-path="url(#1e66facf27)"><g clip-path="url(#d632be7264)"><g clip-path="url(#0dcf7d718e)"><path fill="#615dff" d="M 20.058594 19.472656 L -2.125 19.472656 L -2.125 0.0898438 L 20.058594 0.0898438 Z M 20.058594 19.472656 " fill-opacity="1" fill-rule="nonzero"/></g></g></g></g></g></g></g></g></g><g mask="url(#08e7f063c6)"><g transform="matrix(1, 0, 0, 1, 0, 10)"><g clip-path="url(#173840fcb1)"><g clip-path="url(#a7eadfa0e4)"><g clip-path="url(#37207095ca)"><g transform="matrix(1, 0, 0, 1, 2, 1)"><g clip-path="url(#077bcbe649)"><g clip-path="url(#a15bfa7a2a)"><g clip-path="url(#d00bc26519)"><path fill="#00bf63" d="M 20.144531 19.472656 L -2.035156 19.472656 L -2.035156 0.0898438 L 20.144531 0.0898438 Z M 20.144531 19.472656 " fill-opacity="1" fill-rule="nonzero"/></g></g></g></g></g></g></g></g></g></svg>